<svg xmlns="http://www.w3.org/2000/svg" width="44" height="44" fill="none" viewBox="0 0 44 44"><path fill="#303790" d="M22.61.092a.65.65 0 0 0-.67.017c-4.481.19-9.15 1.561-12.957 4.924-6.19 5.47-7.711 12.467-5.609 19.219a2.27 2.27 0 0 0 .553 1.266c.87.983 2.425 1.03 3.47.104.774-.683 1.056-1.705.8-2.589a2.3 2.3 0 0 0-.387-.762c-2.517-5.45-1.316-11.781 4.392-16.825 2.959-2.612 6.488-3.747 9.857-4.179a.65.65 0 0 0 .45-.05.7.7 0 0 0 .156-.103c.273-.243.312-.648.085-.906a.7.7 0 0 0-.14-.116m1.659.106a.58.58 0 0 1-.05.826.584.584 0 0 1-.828-.051.59.59 0 0 1 .052-.827.587.587 0 0 1 .826.052m1.526.197a.444.444 0 0 1-.038.623.442.442 0 1 1 .038-.623m1.187.162a.315.315 0 1 1-.472.418.314.314 0 0 1 .026-.445.317.317 0 0 1 .446.027"/><path fill="#1e2660" d="M6.594 21.221c1.054 2.357.863 4.222-.749 5.066.762-.056 1.36-.494 1.553-.665.772-.682 1.055-1.704.798-2.588a2.3 2.3 0 0 0-.386-.762c-2.517-5.45-1.317-11.782 4.391-16.825a16 16 0 0 1 3.16-2.168C5.437 7.914 4.875 17.366 6.595 21.221"/><path fill="#303790" d="M6.556 21.133c-1.404-3.985-1.12-13.219 8.806-17.854 1.737-.908 3.567-1.472 5.376-1.805q.663-.122 1.321-.207a.65.65 0 0 0 .45-.05.7.7 0 0 0 .156-.103c.273-.243.31-.647.086-.906a.7.7 0 0 0-.14-.116.65.65 0 0 0-.672.017c-4.481.19-9.15 1.56-12.955 4.924-6.192 5.47-7.712 12.468-5.61 19.217a2.3 2.3 0 0 0 .553 1.268"/><path fill="#e6e52a" d="M.093 21.302a.64.64 0 0 0 .016.67c.188 4.483 1.56 9.15 4.924 12.955 5.469 6.192 12.468 7.713 19.219 5.611a2.3 2.3 0 0 0 1.266-.553c.984-.87 1.03-2.425.106-3.471-.686-.774-1.706-1.053-2.59-.8a2.2 2.2 0 0 0-.761.389c-5.451 2.517-11.782 1.316-16.825-4.392-2.614-2.96-3.748-6.491-4.18-9.857a.67.67 0 0 0-.051-.452.6.6 0 0 0-.103-.154c-.243-.275-.649-.312-.906-.086a.6.6 0 0 0-.115.14m.106-1.661a.59.59 0 0 1 .825.05.587.587 0 0 1-.878.776.585.585 0 0 1 .053-.826m.196-1.524a.44.44 0 1 1 .584.66.44.44 0 0 1-.622-.037.443.443 0 0 1 .038-.623m.162-1.187a.316.316 0 1 1 .418.474.316.316 0 0 1-.418-.474"/><path fill="#b5b115" d="M21.221 37.317c2.36-1.053 4.224-.862 5.066.748-.057-.76-.494-1.359-.664-1.551-.684-.774-1.706-1.053-2.59-.8-.27.078-.528.206-.76.388-5.452 2.517-11.782 1.317-16.826-4.391a16 16 0 0 1-2.169-3.161c4.637 9.926 14.087 10.489 17.943 8.767"/><path fill="#8dc440" d="M21.302 43.82a.65.65 0 0 0 .671-.016c4.48-.19 9.15-1.561 12.956-4.924 6.19-5.47 7.711-12.468 5.609-19.22a2.3 2.3 0 0 0-.553-1.266c-.87-.985-2.423-1.031-3.471-.104-.774.684-1.055 1.704-.799 2.589.078.27.206.529.388.759 2.516 5.452 1.316 11.783-4.392 16.826-2.96 2.612-6.49 3.748-9.858 4.178a.66.66 0 0 0-.45.053.7.7 0 0 0-.155.102c-.273.244-.312.65-.086.906q.063.07.14.117m-1.659-.107a.58.58 0 0 1 .05-.825.585.585 0 1 1-.05.825m-1.525-.196a.44.44 0 1 1 .66-.582.44.44 0 0 1-.037.62.443.443 0 0 1-.623-.038m-1.188-.163a.315.315 0 1 1 .473-.416.314.314 0 0 1-.027.445.317.317 0 0 1-.446-.029"/><path fill="#6b932c" d="M37.318 22.69c-1.054-2.359-.862-4.223.749-5.066-.764.058-1.36.497-1.553.664-.774.686-1.054 1.706-.798 2.59.077.271.205.53.386.76 2.517 5.452 1.317 11.783-4.39 16.826a16 16 0 0 1-3.162 2.169c9.926-4.637 10.49-14.085 8.768-17.943"/><path fill="#8dc440" d="M37.356 22.78c1.404 3.982 1.12 13.216-8.805 17.853-1.739.906-3.568 1.47-5.375 1.805h-.004q-.66.121-1.318.204a.67.67 0 0 0-.451.053.7.7 0 0 0-.156.102c-.273.244-.312.65-.086.906q.065.069.14.117c.2.118.46.114.672-.017 4.482-.188 9.15-1.56 12.955-4.923 6.192-5.47 7.712-12.468 5.61-19.22a2.3 2.3 0 0 0-.341-.985 2 2 0 0 0-.212-.281"/><path fill="#e02228" d="M43.82 22.609a.65.65 0 0 0-.016-.67c-.19-4.48-1.562-9.15-4.924-12.955-5.47-6.191-12.468-7.712-19.219-5.609a2.25 2.25 0 0 0-1.268.552c-.983.87-1.03 2.423-.104 3.471.684.774 1.705 1.055 2.59.8.271-.08.528-.207.761-.389 5.45-2.516 11.78-1.316 16.825 4.391 2.613 2.96 3.747 6.49 4.18 9.857a.66.66 0 0 0 .05.453.7.7 0 0 0 .103.154c.243.275.648.312.907.085a.6.6 0 0 0 .115-.14m-.106 1.661a.586.586 0 1 1-.775-.88.586.586 0 0 1 .775.88m-.197 1.525a.44.44 0 1 1-.584-.66.44.44 0 0 1 .584.66m-.161 1.185a.315.315 0 1 1-.419-.472.317.317 0 0 1 .446.027.317.317 0 0 1-.027.446"/><path fill="#a31721" d="M22.69 6.594c-2.358 1.052-4.222.862-5.065-.747.057.76.495 1.358.664 1.55.684.775 1.705 1.055 2.59.8.271-.079.528-.206.761-.387 5.45-2.516 11.78-1.317 16.825 4.39.882 1 1.593 2.063 2.169 3.163-4.637-9.926-14.087-10.49-17.943-8.769"/><path fill="#e02228" d="M22.78 6.556c3.983-1.405 13.217-1.12 17.854 8.807.906 1.737 1.47 3.564 1.804 5.375q.122.662.206 1.32a.67.67 0 0 0 .155.605c.243.276.647.314.906.086a.7.7 0 0 0 .114-.14.65.65 0 0 0-.015-.67c-.19-4.48-1.562-9.15-4.924-12.954-5.47-6.192-12.468-7.713-19.219-5.61a2.26 2.26 0 0 0-1.268.552"/><path fill="#303790" d="M23.444.146a.586.586 0 1 0 .775.88.586.586 0 0 0-.775-.88m1.728.211a.442.442 0 0 0 .585.66.442.442 0 0 0-.585-.66m1.81.2a.317.317 0 0 0-.446-.027.314.314 0 0 0-.026.445.315.315 0 1 0 .472-.418"/></svg>