<svg width="100" height="111" viewBox="0 0 100 111" fill="none" xmlns="http://www.w3.org/2000/svg">
<path d="M60.3531 15.9639C58.4861 16.4006 56.6436 16.9351 54.8308 17.5691C53.0286 18.1973 51.2606 18.9202 49.5265 19.7285C47.7987 20.5357 46.1039 21.4311 44.4546 22.4033C42.8044 23.3782 41.196 24.4318 39.632 25.5555C38.0663 26.6849 36.5458 27.8816 35.0766 29.1446C33.6004 30.4114 32.1756 31.7445 30.802 33.1345C29.424 34.5293 28.0972 35.9809 26.826 37.4846C25.5504 38.9931 24.3311 40.5509 23.1656 42.157C21.9992 43.766 20.8881 45.4177 19.836 47.1101C18.783 48.8054 17.787 50.5377 16.8506 52.308C15.9152 54.0755 15.0402 55.878 14.2275 57.71C13.4164 59.5364 12.6694 61.3958 11.9835 63.2782C11.3029 65.153 10.6852 67.0544 10.1358 68.9748C9.46433 71.3206 8.88908 73.7006 8.42581 76.1014C7.98417 78.3884 7.63938 80.6974 7.39474 83.0171C7.38639 83.0857 7.48323 83.1078 7.50505 83.0435C8.34229 80.5655 8.77102 78.3426 10.3531 76.3134C10.4573 76.1798 10.5617 75.975 10.4432 75.856C10.4049 75.8157 10.3474 75.8002 10.2935 75.7827C8.87574 75.3235 9.84461 72.3271 10.5318 69.4657C10.8233 68.2521 11.274 67.0498 11.6958 65.8754C12.5824 63.4102 13.5778 60.9865 14.6725 58.6166C15.7654 56.2431 16.9576 53.9234 18.2455 51.6595C19.1388 50.0861 20.0828 48.5507 21.0548 47.0307C32.6072 28.9491 51.5867 14.826 72.9144 14.8347C68.7144 14.6521 64.4844 15.0642 60.3531 15.9639Z" fill="url(#paint0_linear_4_14945)"/>
<path d="M7.43377 84.2874C12.377 86.329 17.3802 88.2145 22.4983 89.6617C27.6084 91.1062 32.8357 92.1556 38.0955 92.3453C38.751 92.3516 39.4078 92.3736 40.063 92.3708L42.0275 92.3043C43.3327 92.2242 44.6315 92.0843 45.8888 91.7913C46.5151 91.6425 47.1321 91.4542 47.716 91.2066C48.2979 90.9552 48.8549 90.6471 49.324 90.2434C49.7969 89.847 50.172 89.3487 50.3584 88.7761C50.5439 88.2063 50.5243 87.5781 50.3198 86.9953C50.1223 86.4087 49.7446 85.872 49.3188 85.3892C48.8875 84.9046 48.3946 84.4695 47.8683 84.078C46.8165 83.2922 45.6485 82.6623 44.4399 82.1525C43.2216 81.6456 41.9704 81.2218 40.6997 80.8857C39.4298 80.5468 38.1397 80.2983 36.8443 80.1603C35.5535 80.0268 34.2447 79.9965 32.9977 80.2232C32.3729 80.3361 31.7618 80.5142 31.1815 80.76C30.6019 81.003 30.058 81.3275 29.6051 81.7366C29.3727 81.9361 29.1833 82.171 29.0202 82.4176C28.8617 82.6688 28.7619 82.9422 28.6988 83.2217C28.6145 83.7793 28.7659 84.4023 29.0538 84.9732C29.6298 86.1241 30.5529 87.1193 31.544 87.9821C32.5439 88.8448 33.6716 89.5524 34.8392 90.1731C36.0103 90.7919 37.2301 91.3145 38.4725 91.7687C40.9593 92.6808 43.5335 93.3214 46.1178 93.9168C48.704 94.5159 51.3118 95.0402 53.8848 95.8078C56.4492 96.5846 58.949 97.5951 61.3332 98.8616C62.5236 99.4958 63.678 100.203 64.7884 100.981C65.8961 101.758 66.9616 102.609 67.9402 103.555C68.9239 104.495 69.8217 105.536 70.5854 106.673C70.9581 107.247 71.3012 107.842 71.5925 108.463C71.8768 109.087 72.1171 109.73 72.2964 110.39C72.0985 109.733 71.8433 109.101 71.5442 108.487C71.2381 107.876 70.8813 107.298 70.4957 106.737C69.7124 105.628 68.8065 104.614 67.8113 103.704C66.8212 102.787 65.7531 101.965 64.6393 101.22C63.5263 100.472 62.3685 99.7966 61.1782 99.1928C58.8036 97.9748 56.3131 97.0039 53.7689 96.27C51.2249 95.5454 48.6137 95.0533 46.0143 94.4893C44.7125 94.2097 43.412 93.9153 42.1208 93.5785C40.8277 93.238 39.5428 92.8487 38.2779 92.3901C37.0131 91.9315 35.7647 91.4056 34.5592 90.7725C33.3564 90.1403 32.1871 89.4129 31.1298 88.5131C30.6025 88.0636 30.1035 87.578 29.6448 87.0449C29.1887 86.5128 28.7696 85.9351 28.4461 85.2828C28.1228 84.6397 27.9026 83.8757 28.0202 83.0804C28.0978 82.6995 28.2357 82.3354 28.4339 82.0185C28.6368 81.7062 28.87 81.422 29.1361 81.188C29.6633 80.7064 30.2695 80.3508 30.9016 80.0795C31.5337 79.8083 32.1907 79.615 32.8606 79.4896C34.2084 79.2416 35.5688 79.2675 36.9088 79.4051C38.2491 79.5518 39.5708 79.8137 40.8715 80.1689C42.1711 80.5175 43.4497 80.9594 44.6989 81.4825C45.951 82.0158 47.1636 82.6755 48.2723 83.5103C48.8262 83.9291 49.3522 84.3933 49.8225 84.9271C50.2866 85.4619 50.7129 86.0662 50.9564 86.7801C51.2051 87.4867 51.2315 88.2961 50.9927 89.0091C50.7566 89.723 50.2903 90.3217 49.7522 90.7694C49.2171 91.2272 48.6057 91.5599 47.9778 91.8265C47.3508 92.0903 46.7019 92.2863 46.0481 92.4381C43.422 93.0209 40.7447 93.0439 38.0915 92.9323C32.7731 92.6688 27.5248 91.5488 22.412 90.0215C19.8582 89.239 17.3382 88.3493 14.8418 87.3886C12.34 86.4261 9.87499 85.3877 7.43377 84.2874Z" fill="url(#paint1_linear_4_14945)"/>
<path d="M34.4602 52.8042C33.8739 52.9404 33.2874 53.0672 32.6961 53.1893C25.6824 54.6332 19.8399 56.8423 15.4695 62.8831C13.7564 65.2503 12.3879 67.8644 11.1978 70.5596C10.9327 71.162 10.5873 71.8452 10.2422 72.5591C12.5418 63.6784 16.3538 55.0411 21.4943 47.1447C33.3655 28.6672 51.0905 17.3741 69.4717 16.3772C65.9922 17.9466 63.0866 20.435 60.7885 23.5559C57.851 27.5475 56.1803 32.2747 54.1032 36.7712C53.837 37.3457 53.5645 37.9211 53.2827 38.4873C48.6602 34.6183 41.5963 36.0486 41.5963 36.0486C41.5963 36.0486 48.9562 35.3096 51.9716 40.9425C51.4296 41.8825 50.8525 42.7985 50.2177 43.6737C48.8117 45.6183 47.1692 47.1585 45.3584 48.4031C42.2264 42.9155 34.5585 43.0052 34.5585 43.0052C34.5585 43.0052 40.962 42.9514 43.2976 49.6595C41.0826 50.8552 38.6741 51.707 36.1647 52.3748C33.7754 47.0459 27.3426 47.6242 27.3426 47.6242C27.3426 47.6242 33.6528 47.5915 34.4602 52.8042ZM51.7908 11.3469C49.6446 11.5431 47.5236 11.935 45.4526 12.5002C44.6309 12.7236 43.8248 12.9768 43.0331 13.2532C43.1754 18.5727 40.2511 21.19 40.2511 21.19C40.2511 21.19 43.5058 17.6573 41.0916 13.9967C37.9326 15.3075 35.0249 17.0337 32.3663 19.0887C34.2664 23.3701 32.1576 26.8397 32.1576 26.8397C32.1576 26.8397 33.806 22.6332 30.9426 20.2413C29.0021 21.8878 27.2064 23.7116 25.5519 25.6839C28.0232 29.3973 26.0285 32.8251 26.0285 32.8251C26.0285 32.8251 27.8558 28.9301 24.1856 27.3837C18.724 34.4976 14.9921 43.223 12.9865 52.0329C11.9992 56.3678 10.9949 60.8781 10.2086 65.4151C13.0551 56.3668 17.4738 47.7537 23.2165 40.2239C27.9789 33.9792 33.4713 28.7179 39.5373 24.5874C45.9498 20.2226 52.8553 17.2288 60.0636 15.6932C63.7479 14.9659 67.4063 14.6353 70.9762 14.6989C66.9481 12.7415 59.9765 10.5916 51.7908 11.3469Z" fill="white"/>
<g opacity="0.75">
<path d="M34.4602 52.8042C33.8739 52.9404 33.2874 53.0672 32.6961 53.1893C25.6824 54.6332 19.8399 56.8423 15.4695 62.8831C13.7564 65.2503 12.3879 67.8644 11.1978 70.5596C10.9327 71.162 10.5873 71.8452 10.2422 72.5591C12.5418 63.6784 16.3538 55.0411 21.4943 47.1447C33.3655 28.6672 51.0905 17.3741 69.4717 16.3772C65.9922 17.9466 63.0866 20.435 60.7885 23.5559C57.851 27.5475 56.1803 32.2747 54.1032 36.7712C53.837 37.3457 53.5645 37.9211 53.2827 38.4873C48.6602 34.6183 41.5963 36.0486 41.5963 36.0486C41.5963 36.0486 48.9562 35.3096 51.9716 40.9425C51.4296 41.8825 50.8525 42.7985 50.2177 43.6737C48.8117 45.6183 47.1692 47.1585 45.3584 48.4031C42.2264 42.9155 34.5585 43.0052 34.5585 43.0052C34.5585 43.0052 40.962 42.9514 43.2976 49.6595C41.0826 50.8552 38.6741 51.707 36.1647 52.3748C33.7754 47.0459 27.3426 47.6242 27.3426 47.6242C27.3426 47.6242 33.6528 47.5915 34.4602 52.8042ZM51.7908 11.3469C49.6446 11.5431 47.5236 11.935 45.4526 12.5002C44.6309 12.7236 43.8248 12.9768 43.0331 13.2532C43.1754 18.5727 40.2511 21.19 40.2511 21.19C40.2511 21.19 43.5058 17.6573 41.0916 13.9967C37.9326 15.3075 35.0249 17.0337 32.3663 19.0887C34.2664 23.3701 32.1576 26.8397 32.1576 26.8397C32.1576 26.8397 33.806 22.6332 30.9426 20.2413C29.0021 21.8878 27.2064 23.7116 25.5519 25.6839C28.0232 29.3973 26.0285 32.8251 26.0285 32.8251C26.0285 32.8251 27.8558 28.9301 24.1856 27.3837C18.724 34.4976 14.9921 43.223 12.9865 52.0329C11.9992 56.3678 10.9949 60.8781 10.2086 65.4151C13.0551 56.3668 17.4738 47.7537 23.2165 40.2239C27.9789 33.9792 33.4713 28.7179 39.5373 24.5874C45.9498 20.2226 52.8553 17.2288 60.0636 15.6932C63.7479 14.9659 67.4063 14.6353 70.9762 14.6989C66.9481 12.7415 59.9765 10.5916 51.7908 11.3469Z" fill="url(#paint2_linear_4_14945)"/>
</g>
<path d="M34.3765 52.9294C33.7962 53.0762 33.2156 53.2136 32.6305 53.3464C25.6897 54.9168 19.8928 57.2359 15.4904 63.3789C13.7648 65.7861 12.3754 68.4356 11.1607 71.1633C10.8901 71.773 10.5392 72.4652 10.188 73.1883C12.5902 64.2279 16.4809 55.4861 21.671 47.4658C33.6602 28.7013 51.3161 17.0537 69.4641 15.738C66.008 17.374 63.1041 19.9234 60.79 23.0978C57.832 27.1578 56.1127 31.935 53.9959 36.4875C53.7247 37.0692 53.4472 37.6519 53.1606 38.2254C48.6588 34.4179 41.6687 35.9755 41.6687 35.9755C41.6687 35.9755 48.9404 35.1073 51.8302 40.7142C51.2814 41.6678 50.6983 42.5978 50.0589 43.4879C48.6426 45.4654 46.999 47.0407 45.1939 48.3219C42.1869 42.8629 34.6211 43.0841 34.6211 43.0841C34.6211 43.0841 40.939 42.9206 43.142 49.6192C40.9389 50.8583 38.5501 51.7552 36.0645 52.4688C33.7878 47.1566 27.4331 47.8475 27.4331 47.8475C27.4331 47.8475 33.6586 47.7067 34.3765 52.9294Z" fill="url(#paint3_linear_4_14945)"/>
<defs>
<linearGradient id="paint0_linear_4_14945" x1="56.1188" y1="17.2711" x2="12.1632" y2="72.6772" gradientUnits="userSpaceOnUse">
<stop stop-color="#EFD724"/>
<stop offset="1" stop-color="#DEA710"/>
</linearGradient>
<linearGradient id="paint1_linear_4_14945" x1="8.98706" y1="79.5978" x2="75.809" y2="98.9267" gradientUnits="userSpaceOnUse">
<stop stop-color="#DEA710"/>
<stop offset="1" stop-color="#EED322"/>
</linearGradient>
<linearGradient id="paint2_linear_4_14945" x1="26.0842" y1="32.418" x2="46.3873" y2="49.0425" gradientUnits="userSpaceOnUse">
<stop stop-color="#FFF9EB"/>
<stop offset="1" stop-color="white"/>
</linearGradient>
<linearGradient id="paint3_linear_4_14945" x1="28.293" y1="34.6362" x2="46.9387" y2="49.0475" gradientUnits="userSpaceOnUse">
<stop stop-color="#FFECD6"/>
<stop offset="1" stop-color="#FFF9EB"/>
</linearGradient>
</defs>
</svg>
