<svg width="166" height="44" viewBox="0 0 166 44" fill="none" xmlns="http://www.w3.org/2000/svg">
<g clip-path="url(#clip0_126_555)">
<path d="M22.6101 0.0917395C22.4125 -0.0265301 22.151 -0.0215371 21.9391 0.108591C17.4586 0.299881 12.7893 1.67012 8.98349 5.03253C2.79322 10.5026 1.27194 17.5004 3.37427 24.2515C3.41078 24.5972 3.52375 24.9327 3.71628 25.2357C3.7787 25.3346 3.84891 25.4283 3.92692 25.5178C4.79694 26.5008 6.35192 26.5476 7.39731 25.6217C8.17089 24.9393 8.45299 23.9173 8.19679 23.0332C8.11878 22.7627 7.99146 22.5052 7.80953 22.2712C5.29342 16.8217 6.49359 10.4898 12.2017 5.44601C15.161 2.83378 18.6897 1.69883 22.0587 1.26726C22.2044 1.3047 22.3657 1.28785 22.5087 1.21639C22.5645 1.18924 22.6179 1.15648 22.6647 1.11373C22.9377 0.870633 22.9767 0.466208 22.7505 0.207513C22.709 0.160704 22.6606 0.124193 22.6101 0.0917395Z" fill="#303790"/>
<path d="M24.269 0.197849C24.4849 0.439693 24.4615 0.810104 24.2184 1.02355C23.9766 1.23918 23.6087 1.21578 23.3915 0.972686C23.1796 0.730842 23.2014 0.36043 23.4433 0.145735C23.6867 -0.0673993 24.0558 -0.0427469 24.269 0.197849Z" fill="#303790"/>
<path d="M25.7952 0.395069C25.9553 0.578246 25.9381 0.856601 25.7575 1.01762C25.5743 1.17896 25.2959 1.16086 25.1346 0.978615C24.9723 0.795438 24.9904 0.517083 25.1724 0.35731C25.3546 0.195977 25.6339 0.212828 25.7952 0.395069Z" fill="#303790"/>
<path d="M26.982 0.557017C27.0974 0.687145 27.0847 0.887485 26.9545 1.00295C26.8244 1.11747 26.6256 1.10593 26.5098 0.974549C26.3928 0.84567 26.4059 0.644081 26.5357 0.529868C26.6671 0.414095 26.8675 0.427202 26.982 0.557017Z" fill="#303790"/>
<path d="M6.59438 21.2211C7.64757 23.5784 7.4566 25.4429 5.84545 26.2867C6.60749 26.2309 7.2057 25.7927 7.39793 25.6224C8.17027 24.9396 8.45268 23.9176 8.19648 23.0335C8.11972 22.763 7.99084 22.5055 7.81016 22.2715C5.29311 16.8211 6.49296 10.4901 12.2011 5.44664C13.1997 4.56508 14.2632 3.85516 15.3619 3.2791C5.43603 7.91439 4.87433 17.3657 6.59438 21.2211Z" fill="#1E2660"/>
<path d="M6.5563 21.1325C5.15205 17.1484 5.4357 7.91406 15.3616 3.27877C17.0988 2.37131 18.9293 1.80711 20.738 1.47415C21.1802 1.39208 21.6196 1.32467 22.0593 1.26726C22.2047 1.30501 22.366 1.28816 22.509 1.2167C22.5648 1.18924 22.6182 1.15554 22.665 1.11404C22.938 0.870943 22.9758 0.466518 22.7508 0.207822C22.7093 0.161014 22.6612 0.124503 22.6104 0.0920494C22.4116 -0.0262201 22.1513 -0.0224754 21.9394 0.108901C17.4577 0.299879 12.7896 1.66918 8.9841 5.03284C2.79227 10.5029 1.27224 17.5008 3.37488 24.2502C3.41108 24.5975 3.52436 24.933 3.71534 25.236C3.779 25.3346 3.84921 25.4282 3.92722 25.5181" fill="#303790"/>
<path d="M0.09329 21.3022C-0.0262277 21.4998 -0.022483 21.76 0.108893 21.9719C0.297375 26.4549 1.66918 31.1217 5.03284 34.9273C10.5016 41.1191 17.5008 42.6404 24.2518 40.538C24.5988 40.5003 24.9343 40.3882 25.2373 40.196C25.3349 40.1336 25.4286 40.0634 25.5181 39.9854C26.5023 39.1154 26.5479 37.5604 25.6236 36.5138C24.9383 35.7402 23.9176 35.4606 23.0335 35.7139C22.763 35.792 22.5055 35.9196 22.2727 36.1028C16.822 38.6201 10.4913 37.4187 5.44756 31.7106C2.83408 28.7513 1.70038 25.2198 1.26881 21.8536C1.30501 21.7079 1.28691 21.5453 1.21669 21.4024C1.19079 21.3478 1.15678 21.2944 1.11403 21.2476C0.870935 20.9733 0.465262 20.9356 0.207815 21.1618C0.161006 21.2033 0.123247 21.2501 0.09329 21.3022Z" fill="#E6E52A"/>
<path d="M0.198777 19.6412C0.440621 19.429 0.809784 19.4511 1.02448 19.6917C1.23886 19.9348 1.21546 20.3055 0.973614 20.5199C0.730522 20.7334 0.361359 20.71 0.146664 20.4681C-0.0677191 20.2247 -0.0443148 19.8543 0.198777 19.6412Z" fill="#E6E52A"/>
<path d="M0.394741 18.1171C0.57823 17.9557 0.856585 17.9713 1.01761 18.1548C1.17894 18.338 1.16209 18.6164 0.978599 18.7777C0.79667 18.94 0.518316 18.9219 0.357294 18.7399C0.195961 18.5577 0.21406 18.2784 0.394741 18.1171Z" fill="#E6E52A"/>
<path d="M0.557025 16.93C0.688089 16.8142 0.887181 16.8273 1.00295 16.9575C1.11873 17.0873 1.10562 17.2864 0.975493 17.4022C0.845678 17.5192 0.644089 17.5048 0.529564 17.3759C0.41504 17.2446 0.426898 17.0445 0.557025 16.93Z" fill="#E6E52A"/>
<path d="M21.2214 37.3173C23.5803 36.2641 25.4448 36.4554 26.2874 38.065C26.2299 37.3045 25.7931 36.7063 25.623 36.5138C24.939 35.7402 23.917 35.4606 23.0329 35.7143C22.7624 35.7923 22.5049 35.9196 22.2721 36.1015C16.8214 38.6189 10.4907 37.4187 5.44696 31.7109C4.5654 30.7123 3.85422 29.6485 3.27817 28.5498C7.91502 38.476 17.365 39.0389 21.2214 37.3173Z" fill="#B5B115"/>
<path d="M21.3022 43.8199C21.4998 43.9395 21.7613 43.9342 21.9731 43.8043C26.4537 43.6143 31.123 42.2428 34.9285 38.8804C41.1191 33.41 42.6404 26.4122 40.5377 19.6602C40.5015 19.3144 40.3882 18.9774 40.196 18.6747C40.1336 18.577 40.0634 18.4822 39.9854 18.3939C39.1154 17.4093 37.5616 17.3625 36.5137 18.2896C35.7398 18.9737 35.459 19.9944 35.7152 20.8785C35.7932 21.149 35.9208 21.4077 36.1028 21.6377C38.6186 27.0896 37.4187 33.4206 31.7106 38.4641C28.7513 41.0763 25.221 42.2116 21.8533 42.6419C21.7079 42.6067 21.5466 42.6235 21.4036 42.6953C21.3478 42.7212 21.2957 42.7549 21.2476 42.7967C20.9746 43.041 20.9356 43.4467 21.1618 43.7029C21.2033 43.7497 21.2514 43.7887 21.3022 43.8199Z" fill="#8DC440"/>
<path d="M19.6427 43.7126C19.4268 43.472 19.4502 43.1028 19.6933 42.8881C19.9351 42.675 20.3046 42.6972 20.5202 42.939C20.7337 43.1808 20.7115 43.55 20.4684 43.7647C20.2266 43.9791 19.8559 43.9557 19.6427 43.7126Z" fill="#8DC440"/>
<path d="M18.1177 43.5169C17.9564 43.335 17.9732 43.0554 18.1555 42.8928C18.3386 42.733 18.617 42.7511 18.7768 42.9346C18.9393 43.1153 18.9225 43.3934 18.7406 43.5547C18.5571 43.716 18.2775 43.6976 18.1177 43.5169Z" fill="#8DC440"/>
<path d="M16.9303 43.354C16.8146 43.2242 16.8277 43.0251 16.9578 42.9094C17.0876 42.7936 17.2867 42.8067 17.4025 42.9381C17.5195 43.0682 17.5064 43.267 17.3763 43.3827C17.2449 43.4957 17.0449 43.4867 16.9303 43.354Z" fill="#8DC440"/>
<path d="M37.3176 22.6896C36.2644 20.3311 36.4557 18.4666 38.0666 17.624C37.3033 17.6824 36.7066 18.1208 36.5141 18.2884C35.7405 18.9737 35.4596 19.9944 35.7158 20.8785C35.7926 21.149 35.9212 21.4077 36.1019 21.6377C38.6192 27.0896 37.419 33.4206 31.7112 38.4641C30.7126 39.3457 29.6488 40.0584 28.5501 40.6329C38.4763 35.9964 39.0392 26.5476 37.3176 22.6896Z" fill="#6B932C"/>
<path d="M37.3557 22.7808C38.7599 26.7623 38.4753 35.9964 28.5507 40.6332C26.8122 41.5394 24.9826 42.1036 23.1755 42.4378H23.1715H23.1727C22.7333 42.5184 22.2924 42.5873 21.8543 42.6419C21.7073 42.607 21.5463 42.6238 21.403 42.6953C21.3472 42.7212 21.2954 42.7552 21.247 42.7967C20.974 43.041 20.9349 43.4467 21.1612 43.7029C21.2043 43.7485 21.2511 43.7887 21.3016 43.8199C21.5007 43.9382 21.7607 43.9345 21.9725 43.8031C26.4546 43.6146 31.1224 42.2428 34.9282 38.8804C41.12 33.4104 42.6401 26.4125 40.5387 19.6602C40.5009 19.3144 40.3879 18.9765 40.1967 18.6747C40.1342 18.5771 40.064 18.4822 39.9848 18.3939" fill="#8DC440"/>
<path d="M43.8196 22.6085C43.9379 22.4122 43.9338 22.1507 43.804 21.9388C43.614 17.4583 42.2422 12.789 38.8798 8.98443C33.4097 2.79291 26.4119 1.27163 19.6611 3.37521C19.3138 3.41172 18.9771 3.52343 18.6769 3.71597C18.5767 3.77838 18.4831 3.8486 18.3933 3.92661C17.4103 4.79662 17.3635 6.35035 18.2893 7.39824C18.9734 8.17183 19.9941 8.45268 20.8794 8.19804C21.15 8.11847 21.4074 7.99115 21.6402 7.80922C27.0906 5.29311 33.4203 6.49328 38.4651 12.2002C41.0785 15.1594 42.2125 18.6909 42.6441 22.0571C42.6064 22.2053 42.6245 22.3654 42.6947 22.5096C42.7221 22.5642 42.7558 22.6163 42.7976 22.6644C43.0407 22.9387 43.4464 22.9764 43.7051 22.7489C43.7507 22.7087 43.7884 22.6603 43.8196 22.6085Z" fill="#E02228"/>
<path d="M43.7135 24.2699C43.4717 24.483 43.1025 24.4609 42.8878 24.219C42.6734 23.9759 42.6968 23.608 42.9387 23.3908C43.1818 23.1789 43.5509 23.2011 43.7656 23.4429C43.9788 23.686 43.9566 24.0552 43.7135 24.2699Z" fill="#E02228"/>
<path d="M43.5173 25.7949C43.3341 25.9563 43.0557 25.9394 42.8944 25.7559C42.7334 25.574 42.7502 25.2956 42.9334 25.1343C43.1156 24.9733 43.3937 24.9901 43.555 25.1721C43.7163 25.3543 43.6979 25.6352 43.5173 25.7949Z" fill="#E02228"/>
<path d="M43.3556 26.9807C43.2242 27.0978 43.0251 27.0847 42.9094 26.9533C42.7939 26.8232 42.8067 26.6244 42.9368 26.5086C43.067 26.3928 43.267 26.4047 43.3828 26.5345C43.4973 26.6671 43.4867 26.8675 43.3556 26.9807Z" fill="#E02228"/>
<path d="M22.6906 6.59408C20.3321 7.64602 18.4675 7.45629 17.625 5.8467C17.6821 6.60718 18.1202 7.20539 18.2893 7.39762C18.9734 8.17152 19.9941 8.45237 20.8794 8.19742C21.15 8.11816 21.4074 7.99053 21.6402 7.80985C27.0906 5.29405 33.4203 6.49266 38.4651 12.2008C39.3466 13.2006 40.0578 14.2629 40.6338 15.3629C35.9973 5.43697 26.5473 4.87277 22.6906 6.59408Z" fill="#A31721"/>
<path d="M22.7801 6.556C26.7629 5.1505 35.9973 5.43665 40.6338 15.3626C41.5401 17.0998 42.1043 18.9266 42.4385 20.7377C42.5193 21.1799 42.5879 21.6193 42.6441 22.0574C42.6076 22.2044 42.6245 22.3645 42.6947 22.5087C42.7221 22.5645 42.7558 22.6166 42.7986 22.6634C43.042 22.939 43.4461 22.9767 43.7051 22.7493C43.7504 22.7077 43.7881 22.6597 43.8193 22.6088C43.9376 22.4113 43.9338 22.151 43.8037 21.9392C43.614 17.4586 42.2422 12.7893 38.8798 8.98505C33.4097 2.79322 26.4119 1.27195 19.6611 3.37458C19.3138 3.41203 18.9771 3.52281 18.6766 3.71629C18.578 3.77745 18.4831 3.84891 18.3932 3.92692" fill="#E02228"/>
<path d="M23.4436 0.146348C23.2005 0.360731 23.1783 0.731455 23.3918 0.973299C23.6074 1.21514 23.9769 1.2398 24.2187 1.02385C24.4618 0.810717 24.4852 0.438746 24.2693 0.198462C24.0562 -0.0433821 23.6867 -0.0683466 23.4436 0.146348Z" fill="#303790"/>
<path d="M25.1724 0.356986C24.9904 0.517071 24.9723 0.795426 25.1346 0.978603C25.2959 1.16053 25.5743 1.17894 25.7575 1.01761C25.9381 0.856277 25.9553 0.578234 25.7952 0.394745C25.6339 0.212816 25.3546 0.195965 25.1724 0.356986Z" fill="#303790"/>
<path d="M26.982 0.557017C26.8675 0.427202 26.6671 0.414095 26.5357 0.529868C26.4059 0.644081 26.3928 0.84567 26.5098 0.974549C26.6256 1.10593 26.8244 1.11747 26.9545 1.00295C27.0847 0.887485 27.0974 0.687145 26.982 0.557017Z" fill="#303790"/>
</g>
<path d="M55.512 30V14.46H58.368V30H55.512ZM61.1877 30V18.87H63.9807V20.466H64.1067C64.2187 20.27 64.3937 20.032 64.6317 19.752C64.8697 19.458 65.1987 19.206 65.6187 18.996C66.0387 18.772 66.5707 18.66 67.2147 18.66C68.0687 18.66 68.7687 18.856 69.3147 19.248C69.8747 19.626 70.2877 20.13 70.5537 20.76C70.8337 21.39 70.9737 22.069 70.9737 22.797V30H68.1807V23.175C68.1807 22.573 68.0127 22.055 67.6767 21.621C67.3407 21.187 66.8367 20.97 66.1647 20.97C65.6467 20.97 65.2267 21.103 64.9047 21.369C64.5827 21.621 64.3447 21.95 64.1907 22.356C64.0507 22.762 63.9807 23.189 63.9807 23.637V30H61.1877ZM74.8765 30V21.117H73.0915V18.87H74.8765V17.841C74.8765 17.421 74.9325 16.98 75.0445 16.518C75.1565 16.042 75.3455 15.601 75.6115 15.195C75.8915 14.789 76.2765 14.46 76.7665 14.208C77.2705 13.956 77.9005 13.83 78.6565 13.83C79.0765 13.83 79.4195 13.865 79.6855 13.935C79.9655 13.991 80.1055 14.019 80.1055 14.019V16.056C80.1055 16.056 80.0145 16.042 79.8325 16.014C79.6505 15.972 79.4545 15.951 79.2445 15.951C78.6425 15.951 78.2295 16.126 78.0055 16.476C77.7815 16.826 77.6695 17.281 77.6695 17.841V18.87H80.0425V21.117H77.6695V30H74.8765ZM87.0755 30.21C85.8575 30.21 84.8215 29.937 83.9675 29.391C83.1135 28.845 82.4625 28.138 82.0145 27.27C81.5805 26.388 81.3635 25.443 81.3635 24.435C81.3635 23.427 81.5805 22.489 82.0145 21.621C82.4625 20.739 83.1135 20.025 83.9675 19.479C84.8215 18.933 85.8575 18.66 87.0755 18.66C88.3075 18.66 89.3435 18.933 90.1835 19.479C91.0375 20.025 91.6815 20.739 92.1155 21.621C92.5635 22.489 92.7875 23.427 92.7875 24.435C92.7875 25.443 92.5635 26.388 92.1155 27.27C91.6815 28.138 91.0375 28.845 90.1835 29.391C89.3435 29.937 88.3075 30.21 87.0755 30.21ZM87.0755 27.879C87.7055 27.879 88.2305 27.718 88.6505 27.396C89.0845 27.074 89.4135 26.654 89.6375 26.136C89.8615 25.604 89.9735 25.037 89.9735 24.435C89.9735 23.819 89.8615 23.252 89.6375 22.734C89.4135 22.216 89.0845 21.796 88.6505 21.474C88.2305 21.152 87.7055 20.991 87.0755 20.991C86.4595 20.991 85.9345 21.152 85.5005 21.474C85.0665 21.796 84.7375 22.216 84.5135 22.734C84.2895 23.252 84.1775 23.819 84.1775 24.435C84.1775 25.037 84.2895 25.604 84.5135 26.136C84.7375 26.654 85.0665 27.074 85.5005 27.396C85.9345 27.718 86.4595 27.879 87.0755 27.879ZM105.888 30.21C104.922 30.21 104.096 30.091 103.41 29.853C102.724 29.615 102.15 29.307 101.688 28.929C101.24 28.551 100.883 28.152 100.617 27.732C100.351 27.298 100.148 26.892 100.008 26.514C99.8816 26.136 99.7976 25.828 99.7556 25.59C99.7136 25.352 99.6926 25.233 99.6926 25.233H102.591C102.591 25.233 102.605 25.317 102.633 25.485C102.675 25.653 102.759 25.87 102.885 26.136C103.011 26.388 103.193 26.64 103.431 26.892C103.683 27.144 104.012 27.361 104.418 27.543C104.838 27.711 105.356 27.795 105.972 27.795C106.924 27.795 107.645 27.585 108.135 27.165C108.639 26.731 108.891 26.199 108.891 25.569C108.891 25.037 108.702 24.617 108.324 24.309C107.946 23.987 107.386 23.749 106.644 23.595L104.586 23.154C103.788 22.986 103.039 22.734 102.339 22.398C101.653 22.062 101.1 21.607 100.68 21.033C100.26 20.459 100.05 19.724 100.05 18.828C100.05 17.89 100.281 17.078 100.743 16.392C101.219 15.706 101.87 15.181 102.696 14.817C103.522 14.439 104.488 14.25 105.594 14.25C106.644 14.25 107.512 14.404 108.198 14.712C108.884 15.02 109.43 15.398 109.836 15.846C110.256 16.294 110.564 16.742 110.76 17.19C110.956 17.638 111.082 18.016 111.138 18.324C111.208 18.632 111.243 18.786 111.243 18.786H108.45C108.45 18.786 108.422 18.681 108.366 18.471C108.31 18.247 108.184 17.995 107.988 17.715C107.792 17.435 107.498 17.19 107.106 16.98C106.714 16.756 106.189 16.644 105.531 16.644C104.593 16.644 103.907 16.854 103.473 17.274C103.053 17.694 102.843 18.149 102.843 18.639C102.843 19.143 103.039 19.535 103.431 19.815C103.823 20.095 104.348 20.312 105.006 20.466L107.211 20.928C108.037 21.11 108.793 21.383 109.479 21.747C110.165 22.111 110.711 22.594 111.117 23.196C111.523 23.784 111.726 24.519 111.726 25.401C111.726 26.297 111.502 27.109 111.054 27.837C110.606 28.565 109.948 29.146 109.08 29.58C108.212 30 107.148 30.21 105.888 30.21ZM114.062 34.116V18.87H116.855V20.424H117.002C117.1 20.256 117.275 20.032 117.527 19.752C117.793 19.472 118.157 19.22 118.619 18.996C119.081 18.772 119.669 18.66 120.383 18.66C121.223 18.66 121.951 18.828 122.567 19.164C123.183 19.486 123.694 19.927 124.1 20.487C124.506 21.033 124.807 21.649 125.003 22.335C125.213 23.021 125.318 23.721 125.318 24.435C125.318 25.149 125.213 25.849 125.003 26.535C124.807 27.221 124.506 27.844 124.1 28.404C123.694 28.95 123.183 29.391 122.567 29.727C121.951 30.049 121.223 30.21 120.383 30.21C119.669 30.21 119.081 30.098 118.619 29.874C118.157 29.636 117.793 29.377 117.527 29.097C117.275 28.817 117.1 28.6 117.002 28.446H116.855V34.116H114.062ZM116.813 24.435C116.813 25.009 116.918 25.562 117.128 26.094C117.338 26.626 117.653 27.067 118.073 27.417C118.493 27.753 119.018 27.921 119.648 27.921C120.292 27.921 120.824 27.753 121.244 27.417C121.664 27.067 121.979 26.626 122.189 26.094C122.399 25.562 122.504 25.009 122.504 24.435C122.504 23.861 122.399 23.308 122.189 22.776C121.979 22.244 121.664 21.81 121.244 21.474C120.824 21.124 120.292 20.949 119.648 20.949C119.018 20.949 118.493 21.124 118.073 21.474C117.653 21.81 117.338 22.244 117.128 22.776C116.918 23.308 116.813 23.861 116.813 24.435ZM133.03 30.21C132.078 30.21 131.252 30.049 130.552 29.727C129.866 29.391 129.292 28.95 128.83 28.404C128.382 27.844 128.046 27.221 127.822 26.535C127.598 25.849 127.486 25.149 127.486 24.435C127.486 23.721 127.591 23.028 127.801 22.356C128.025 21.67 128.354 21.047 128.788 20.487C129.236 19.927 129.803 19.486 130.489 19.164C131.175 18.828 131.987 18.66 132.925 18.66C133.933 18.66 134.822 18.884 135.592 19.332C136.362 19.78 136.964 20.438 137.398 21.306C137.832 22.16 138.049 23.224 138.049 24.498V25.212H130.3C130.342 25.968 130.601 26.626 131.077 27.186C131.553 27.732 132.204 28.005 133.03 28.005C133.506 28.005 133.898 27.928 134.206 27.774C134.514 27.62 134.752 27.445 134.92 27.249C135.088 27.039 135.207 26.864 135.277 26.724C135.347 26.57 135.382 26.493 135.382 26.493H137.965C137.965 26.493 137.93 26.619 137.86 26.871C137.79 27.109 137.657 27.417 137.461 27.795C137.279 28.159 137.006 28.53 136.642 28.908C136.278 29.272 135.802 29.58 135.214 29.832C134.626 30.084 133.898 30.21 133.03 30.21ZM130.3 23.385H135.361C135.319 22.517 135.06 21.873 134.584 21.453C134.108 21.033 133.548 20.823 132.904 20.823C132.19 20.823 131.595 21.054 131.119 21.516C130.643 21.964 130.37 22.587 130.3 23.385ZM145.156 18.66C145.87 18.66 146.458 18.779 146.92 19.017C147.382 19.241 147.746 19.493 148.012 19.773C148.278 20.039 148.46 20.256 148.558 20.424H148.684V18.87H151.477V30H148.684V28.446H148.558C148.46 28.614 148.278 28.838 148.012 29.118C147.746 29.398 147.382 29.65 146.92 29.874C146.458 30.098 145.87 30.21 145.156 30.21C144.33 30.21 143.609 30.049 142.993 29.727C142.377 29.391 141.859 28.95 141.439 28.404C141.033 27.844 140.725 27.221 140.515 26.535C140.319 25.849 140.221 25.149 140.221 24.435C140.221 23.721 140.319 23.021 140.515 22.335C140.725 21.649 141.033 21.033 141.439 20.487C141.859 19.927 142.377 19.486 142.993 19.164C143.609 18.828 144.33 18.66 145.156 18.66ZM145.891 20.949C145.261 20.949 144.729 21.124 144.295 21.474C143.875 21.81 143.56 22.244 143.35 22.776C143.14 23.308 143.035 23.861 143.035 24.435C143.035 25.009 143.14 25.562 143.35 26.094C143.56 26.626 143.875 27.067 144.295 27.417C144.729 27.753 145.261 27.921 145.891 27.921C146.521 27.921 147.046 27.753 147.466 27.417C147.886 27.067 148.201 26.626 148.411 26.094C148.621 25.562 148.726 25.009 148.726 24.435C148.726 23.861 148.621 23.308 148.411 22.776C148.201 22.244 147.886 21.81 147.466 21.474C147.046 21.124 146.521 20.949 145.891 20.949ZM154.339 30V14.04H157.132V23.28L161.059 18.87H164.356L159.736 23.952L164.503 30H161.164L157.132 24.876V30H154.339Z" fill="#212121"/>
<defs>
<clipPath id="clip0_126_555">
<rect width="44" height="44" fill="white"/>
</clipPath>
</defs>
</svg>
