<svg xmlns="http://www.w3.org/2000/svg" width="100" height="111" fill="none" viewBox="0 0 100 111"><path fill="url(#a)" d="M60.353 15.964q-2.802.655-5.522 1.605a57 57 0 0 0-5.305 2.16 60 60 0 0 0-5.071 2.674 65 65 0 0 0-4.823 3.153 68 68 0 0 0-4.555 3.589 71 71 0 0 0-4.275 3.99 76 76 0 0 0-3.976 4.35 80 80 0 0 0-3.66 4.672 84 84 0 0 0-3.33 4.953 86.5 86.5 0 0 0-5.608 10.6 86 86 0 0 0-4.092 11.265 81.7 81.7 0 0 0-2.741 14.042c-.009.069.088.09.11.026.837-2.478 1.266-4.7 2.848-6.73.104-.133.209-.338.09-.457-.038-.04-.096-.056-.15-.073-1.417-.46-.448-3.456.239-6.317.291-1.214.742-2.416 1.164-3.59a90 90 0 0 1 2.976-7.26 91 91 0 0 1 3.573-6.956 103 103 0 0 1 2.81-4.63c11.552-18.08 30.532-32.204 51.86-32.195-4.2-.183-8.43.23-12.562 1.129"/><path fill="url(#b)" d="M7.434 84.287c4.943 2.042 9.946 3.927 15.064 5.375 5.11 1.444 10.338 2.494 15.598 2.683.655.007 1.312.029 1.967.026l1.965-.067c1.305-.08 2.604-.22 3.86-.513a11.5 11.5 0 0 0 1.828-.584c.582-.252 1.139-.56 1.608-.964.473-.396.848-.894 1.034-1.467a2.8 2.8 0 0 0-.038-1.78c-.198-.587-.575-1.124-1.001-1.607a9.6 9.6 0 0 0-1.45-1.311c-1.053-.786-2.22-1.416-3.43-1.925a29 29 0 0 0-3.74-1.267 25.4 25.4 0 0 0-3.855-.726c-1.29-.133-2.6-.163-3.846.063a8.6 8.6 0 0 0-1.816.537 5.6 5.6 0 0 0-1.577.977c-.232.2-.422.434-.585.68a2.5 2.5 0 0 0-.321.805c-.085.557.067 1.18.355 1.751.576 1.151 1.499 2.146 2.49 3.01 1 .862 2.128 1.57 3.295 2.19a29 29 0 0 0 3.633 1.596c2.487.912 5.061 1.552 7.646 2.148 2.586.599 5.194 1.123 7.767 1.89a41.5 41.5 0 0 1 7.448 3.055 33 33 0 0 1 3.455 2.119 26 26 0 0 1 3.152 2.574c.984.94 1.882 1.981 2.645 3.118a15 15 0 0 1 1.008 1.79c.284.624.524 1.267.703 1.927a13 13 0 0 0-.752-1.903 15 15 0 0 0-1.048-1.75 19 19 0 0 0-2.685-3.033 25.6 25.6 0 0 0-3.172-2.484 33 33 0 0 0-3.46-2.027 41.4 41.4 0 0 0-7.41-2.923c-2.544-.725-5.155-1.217-7.755-1.78a92 92 0 0 1-3.893-.911 45 45 0 0 1-3.843-1.189 30 30 0 0 1-3.719-1.618c-1.203-.632-2.372-1.36-3.43-2.259a13.5 13.5 0 0 1-1.484-1.468c-.456-.532-.875-1.11-1.199-1.762-.323-.643-.543-1.407-.426-2.203.078-.38.216-.745.414-1.061.203-.313.436-.597.702-.831a6.2 6.2 0 0 1 1.766-1.109 9.3 9.3 0 0 1 1.959-.59c1.347-.247 2.708-.222 4.048-.084a25.6 25.6 0 0 1 3.962.764c1.3.349 2.579.79 3.828 1.314 1.252.533 2.465 1.192 3.573 2.027.554.42 1.08.883 1.55 1.417.465.535.89 1.14 1.134 1.853.25.707.275 1.516.037 2.23-.236.713-.703 1.312-1.24 1.76-.536.457-1.147.79-1.775 1.056-.627.264-1.276.46-1.93.612-2.626.583-5.303.606-7.956.494-5.319-.263-10.567-1.383-15.68-2.91a114 114 0 0 1-7.57-2.633 143 143 0 0 1-7.408-3.102"/><path fill="#fff" d="M34.46 52.804q-.878.203-1.764.385c-7.014 1.444-12.856 3.653-17.226 9.694-1.714 2.367-3.082 4.981-4.272 7.677-.265.602-.61 1.285-.956 2 2.3-8.882 6.112-17.519 11.252-25.415 11.871-18.478 29.597-29.77 47.978-30.768-3.48 1.57-6.385 4.058-8.683 7.179-2.938 3.991-4.609 8.719-6.686 13.215a68 68 0 0 1-.82 1.716c-4.623-3.869-11.687-2.438-11.687-2.438s7.36-.74 10.376 4.894a31 31 0 0 1-1.754 2.73 19.7 19.7 0 0 1-4.86 4.73c-3.132-5.487-10.8-5.398-10.8-5.398s6.404-.054 8.74 6.654c-2.215 1.196-4.624 2.048-7.133 2.716-2.39-5.33-8.822-4.75-8.822-4.75s6.31-.033 7.117 5.18m17.33-41.457a36.8 36.8 0 0 0-8.757 1.906c.142 5.32-2.782 7.937-2.782 7.937s3.255-3.533.84-7.193c-3.158 1.31-6.066 3.037-8.725 5.092 1.9 4.281-.208 7.75-.208 7.75s1.648-4.206-1.215-6.598a45.3 45.3 0 0 0-5.391 5.443c2.471 3.713.477 7.141.477 7.141s1.827-3.895-1.843-5.441c-5.462 7.114-9.194 15.839-11.2 24.649-.987 4.335-1.991 8.845-2.777 13.382 2.846-9.048 7.265-17.661 13.008-25.191 4.762-6.245 10.254-11.506 16.32-15.637 6.413-4.364 13.318-7.358 20.527-8.894a51.6 51.6 0 0 1 10.912-.994c-4.028-1.957-11-4.107-19.185-3.352"/><path fill="url(#c)" d="M34.46 52.804q-.878.203-1.764.385c-7.014 1.444-12.856 3.653-17.226 9.694-1.714 2.367-3.082 4.981-4.272 7.677-.265.602-.61 1.285-.956 2 2.3-8.882 6.112-17.519 11.252-25.415 11.871-18.478 29.597-29.77 47.978-30.768-3.48 1.57-6.385 4.058-8.683 7.179-2.938 3.991-4.609 8.719-6.686 13.215a68 68 0 0 1-.82 1.716c-4.623-3.869-11.687-2.438-11.687-2.438s7.36-.74 10.376 4.894a31 31 0 0 1-1.754 2.73 19.7 19.7 0 0 1-4.86 4.73c-3.132-5.487-10.8-5.398-10.8-5.398s6.404-.054 8.74 6.654c-2.215 1.196-4.624 2.048-7.133 2.716-2.39-5.33-8.822-4.75-8.822-4.75s6.31-.033 7.117 5.18m17.33-41.457a36.8 36.8 0 0 0-8.757 1.906c.142 5.32-2.782 7.937-2.782 7.937s3.255-3.533.84-7.193c-3.158 1.31-6.066 3.037-8.725 5.092 1.9 4.281-.208 7.75-.208 7.75s1.648-4.206-1.215-6.598a45.3 45.3 0 0 0-5.391 5.443c2.471 3.713.477 7.141.477 7.141s1.827-3.895-1.843-5.441c-5.462 7.114-9.194 15.839-11.2 24.649-.987 4.335-1.991 8.845-2.777 13.382 2.846-9.048 7.265-17.661 13.008-25.191 4.762-6.245 10.254-11.506 16.32-15.637 6.413-4.364 13.318-7.358 20.527-8.894a51.6 51.6 0 0 1 10.912-.994c-4.028-1.957-11-4.107-19.185-3.352" opacity=".75"/><path fill="url(#d)" d="M34.377 52.93q-.869.218-1.747.416c-6.94 1.57-12.737 3.89-17.14 10.033-1.725 2.407-3.115 5.057-4.33 7.784-.27.61-.62 1.302-.972 2.025 2.402-8.96 6.293-17.702 11.483-25.722C33.661 28.7 51.316 17.054 69.464 15.738c-3.456 1.636-6.36 4.185-8.674 7.36-2.958 4.06-4.677 8.837-6.794 13.39a71 71 0 0 1-.835 1.737c-4.502-3.807-11.492-2.25-11.492-2.25s7.271-.868 10.161 4.74a33 33 0 0 1-1.771 2.773 20.6 20.6 0 0 1-4.865 4.834c-3.007-5.46-10.573-5.238-10.573-5.238s6.318-.163 8.521 6.535c-2.203 1.24-4.592 2.136-7.078 2.85-2.276-5.312-8.63-4.622-8.63-4.622s6.225-.14 6.942 5.082"/><defs><linearGradient id="a" x1="56.119" x2="12.163" y1="17.271" y2="72.677" gradientUnits="userSpaceOnUse"><stop stop-color="#efd724"/><stop offset="1" stop-color="#dea710"/></linearGradient><linearGradient id="b" x1="8.987" x2="75.809" y1="79.598" y2="98.927" gradientUnits="userSpaceOnUse"><stop stop-color="#dea710"/><stop offset="1" stop-color="#eed322"/></linearGradient><linearGradient id="c" x1="26.084" x2="46.387" y1="32.418" y2="49.042" gradientUnits="userSpaceOnUse"><stop stop-color="#fff9eb"/><stop offset="1" stop-color="#fff"/></linearGradient><linearGradient id="d" x1="28.293" x2="46.939" y1="34.636" y2="49.047" gradientUnits="userSpaceOnUse"><stop stop-color="#ffecd6"/><stop offset="1" stop-color="#fff9eb"/></linearGradient></defs></svg>