<svg xmlns="http://www.w3.org/2000/svg" width="166" height="44" fill="none" viewBox="0 0 166 44"><g clip-path="url(#a)"><path fill="#303790" d="M22.61.092a.65.65 0 0 0-.67.017c-4.481.19-9.15 1.561-12.957 4.924-6.19 5.47-7.711 12.467-5.609 19.219a2.27 2.27 0 0 0 .553 1.266c.87.983 2.425 1.03 3.47.104.774-.683 1.056-1.705.8-2.589a2.3 2.3 0 0 0-.387-.762c-2.517-5.45-1.316-11.781 4.392-16.825 2.959-2.612 6.488-3.747 9.857-4.179a.65.65 0 0 0 .45-.05.7.7 0 0 0 .156-.103c.273-.243.312-.648.085-.906a.7.7 0 0 0-.14-.116m1.659.105a.58.58 0 0 1-.05.826.584.584 0 0 1-.828-.05.59.59 0 0 1 .052-.828.587.587 0 0 1 .826.052m1.526.198a.444.444 0 0 1-.038.622.442.442 0 1 1 .038-.622m1.187.162a.315.315 0 1 1-.472.418.314.314 0 0 1 .026-.445.317.317 0 0 1 .446.027"/><path fill="#1e2660" d="M6.594 21.221c1.054 2.358.863 4.222-.749 5.066.762-.056 1.36-.494 1.553-.664.772-.683 1.055-1.705.798-2.59a2.3 2.3 0 0 0-.386-.761c-2.517-5.45-1.317-11.782 4.391-16.825a16 16 0 0 1 3.16-2.168C5.437 7.915 4.875 17.366 6.595 21.221"/><path fill="#303790" d="M6.556 21.133c-1.404-3.984-1.12-13.219 8.806-17.854 1.737-.908 3.567-1.472 5.376-1.805q.663-.122 1.321-.207a.65.65 0 0 0 .45-.05.7.7 0 0 0 .156-.103c.273-.243.31-.647.086-.906a.7.7 0 0 0-.14-.116.65.65 0 0 0-.672.017C17.458.3 12.79 1.669 8.984 5.033c-6.192 5.47-7.712 12.468-5.61 19.217a2.3 2.3 0 0 0 .553 1.268"/><path fill="#e6e52a" d="M.093 21.303a.64.64 0 0 0 .016.67c.188 4.482 1.56 9.15 4.924 12.955 5.469 6.192 12.468 7.713 19.219 5.61a2.3 2.3 0 0 0 1.266-.552c.984-.87 1.03-2.425.106-3.472-.686-.773-1.706-1.053-2.59-.8a2.2 2.2 0 0 0-.761.39c-5.451 2.517-11.782 1.315-16.825-4.393-2.614-2.96-3.748-6.49-4.18-9.857a.67.67 0 0 0-.051-.451.6.6 0 0 0-.103-.155c-.243-.274-.649-.312-.906-.086a.6.6 0 0 0-.115.14m.106-1.662a.59.59 0 0 1 .825.051.59.59 0 0 1-.05.829.585.585 0 1 1-.775-.879m.196-1.524a.44.44 0 1 1 .584.66.44.44 0 0 1-.622-.037.443.443 0 0 1 .038-.623m.162-1.187a.316.316 0 1 1 .418.474.316.316 0 0 1-.418-.474"/><path fill="#b5b115" d="M21.221 37.317c2.36-1.053 4.224-.861 5.066.748-.057-.76-.494-1.359-.664-1.551-.684-.774-1.706-1.053-2.59-.8-.27.078-.528.206-.76.388-5.452 2.517-11.782 1.317-16.826-4.391a16 16 0 0 1-2.169-3.161c4.637 9.926 14.087 10.489 17.943 8.767"/><path fill="#8dc440" d="M21.302 43.82a.65.65 0 0 0 .671-.015c4.48-.19 9.15-1.562 12.956-4.924 6.19-5.47 7.711-12.469 5.609-19.22a2.3 2.3 0 0 0-.553-1.267c-.87-.984-2.423-1.031-3.471-.104-.774.684-1.055 1.705-.799 2.589.078.27.206.529.388.759 2.516 5.452 1.316 11.783-4.392 16.826-2.96 2.613-6.49 3.748-9.858 4.178a.66.66 0 0 0-.45.053.7.7 0 0 0-.155.102c-.273.244-.312.65-.086.906q.063.07.14.117m-1.659-.107a.58.58 0 0 1 .05-.825.585.585 0 1 1-.05.824m-1.525-.195a.44.44 0 1 1 .66-.582.437.437 0 0 1-.037.62.443.443 0 0 1-.623-.038m-1.188-.163a.315.315 0 1 1 .473-.416.314.314 0 0 1-.027.444.317.317 0 0 1-.446-.028"/><path fill="#6b932c" d="M37.318 22.69c-1.054-2.359-.862-4.223.749-5.066-.764.058-1.36.497-1.553.664-.774.686-1.054 1.706-.798 2.59.077.271.205.53.386.76 2.517 5.452 1.317 11.783-4.39 16.826a16 16 0 0 1-3.162 2.169c9.926-4.637 10.49-14.085 8.768-17.943"/><path fill="#8dc440" d="M37.356 22.78c1.404 3.982 1.12 13.216-8.805 17.853-1.739.906-3.568 1.47-5.375 1.804h-.004q-.66.122-1.318.205a.67.67 0 0 0-.451.053.7.7 0 0 0-.156.101c-.273.245-.312.65-.086.907q.065.068.14.117c.2.118.46.114.672-.017 4.482-.189 9.15-1.56 12.955-4.923 6.192-5.47 7.712-12.468 5.61-19.22a2.3 2.3 0 0 0-.341-.986 2 2 0 0 0-.212-.28"/><path fill="#e02228" d="M43.82 22.608a.65.65 0 0 0-.016-.67c-.19-4.48-1.562-9.15-4.924-12.954-5.47-6.191-12.468-7.713-19.219-5.61a2.25 2.25 0 0 0-1.268.552c-.983.87-1.03 2.424-.104 3.472.684.774 1.705 1.054 2.59.8.271-.08.528-.207.761-.39 5.45-2.515 11.78-1.315 16.825 4.392 2.613 2.96 3.747 6.49 4.18 9.857a.66.66 0 0 0 .05.452.7.7 0 0 0 .103.155c.243.274.648.312.907.085a.6.6 0 0 0 .115-.14m-.106 1.661a.586.586 0 1 1-.775-.879.586.586 0 0 1 .775.88m-.197 1.524a.44.44 0 1 1-.584-.66.44.44 0 0 1 .584.66m-.161 1.185a.315.315 0 1 1-.419-.472.317.317 0 0 1 .446.026.317.317 0 0 1-.027.447"/><path fill="#a31721" d="M22.69 6.594c-2.358 1.052-4.222.862-5.065-.747.057.76.495 1.358.664 1.55.684.775 1.705 1.055 2.59.8.271-.079.528-.206.761-.387 5.45-2.516 11.78-1.317 16.825 4.39.882 1 1.593 2.063 2.169 3.163-4.637-9.926-14.087-10.49-17.943-8.769"/><path fill="#e02228" d="M22.78 6.556c3.983-1.406 13.217-1.12 17.854 8.806.906 1.737 1.47 3.564 1.804 5.376q.122.662.206 1.32a.67.67 0 0 0 .155.605c.243.276.647.314.906.086a.7.7 0 0 0 .114-.14.65.65 0 0 0-.015-.67c-.19-4.48-1.562-9.15-4.924-12.954-5.47-6.192-12.468-7.713-19.219-5.61a2.26 2.26 0 0 0-1.268.552"/><path fill="#303790" d="M23.444.146a.586.586 0 1 0 .775.88.586.586 0 0 0-.775-.88m1.728.211a.442.442 0 0 0 .585.66.442.442 0 0 0-.585-.66m1.81.2a.317.317 0 0 0-.446-.027.314.314 0 0 0-.026.445.315.315 0 1 0 .472-.418"/></g><path fill="#f0f0f0" d="M55.512 30V14.46h2.856V30zm5.676 0V18.87h2.793v1.596h.126q.168-.294.525-.714.357-.441.987-.756.63-.336 1.596-.336 1.281 0 2.1.588.84.567 1.239 1.512.42.945.42 2.037V30H68.18v-6.825q0-.903-.504-1.554t-1.512-.651q-.777 0-1.26.399-.483.378-.714.987-.21.609-.21 1.281V30zm13.688 0v-8.883h-1.785V18.87h1.785v-1.029q0-.63.168-1.323.168-.714.568-1.323a3.1 3.1 0 0 1 1.154-.987q.756-.378 1.89-.378.63 0 1.03.105l.42.084v2.037l-.273-.042a2.6 2.6 0 0 0-.588-.063q-.904 0-1.24.525t-.335 1.365v1.029h2.373v2.247h-2.374V30zm12.2.21q-1.827 0-3.108-.819a5.46 5.46 0 0 1-1.954-2.121 6.3 6.3 0 0 1-.65-2.835q0-1.512.65-2.814a5.4 5.4 0 0 1 1.954-2.142q1.28-.819 3.108-.819 1.848 0 3.108.819a5.27 5.27 0 0 1 1.931 2.142q.673 1.302.672 2.814a6.2 6.2 0 0 1-.672 2.835 5.3 5.3 0 0 1-1.931 2.121q-1.26.819-3.108.819m0-2.331q.945 0 1.575-.483.651-.483.987-1.26a4.3 4.3 0 0 0 .335-1.701 4.2 4.2 0 0 0-.335-1.701 3.04 3.04 0 0 0-.988-1.26q-.63-.483-1.575-.483-.922 0-1.575.483a3.04 3.04 0 0 0-.987 1.26 4.2 4.2 0 0 0-.336 1.701q0 .903.336 1.701.336.777.987 1.26t1.576.483m18.812 2.331q-1.449 0-2.478-.357t-1.722-.924a5.3 5.3 0 0 1-1.071-1.197 7 7 0 0 1-.609-1.218 7 7 0 0 1-.252-.924l-.063-.357h2.898l.042.252q.063.252.252.651a3.2 3.2 0 0 0 .546.756q.378.378.987.651.63.252 1.554.252 1.428 0 2.163-.63.756-.651.756-1.596 0-.798-.567-1.26-.567-.483-1.68-.714l-2.058-.441a10 10 0 0 1-2.247-.756 4.4 4.4 0 0 1-1.659-1.365q-.63-.861-.63-2.205 0-1.407.693-2.436.714-1.029 1.953-1.575 1.239-.567 2.898-.567 1.575 0 2.604.462t1.638 1.134q.63.672.924 1.344t.378 1.134l.105.462h-2.793l-.084-.315q-.084-.336-.378-.756t-.882-.735q-.588-.336-1.575-.336-1.407 0-2.058.63-.63.63-.63 1.365 0 .756.588 1.176t1.575.651l2.205.462a9 9 0 0 1 2.268.819 4.45 4.45 0 0 1 1.638 1.449q.609.882.609 2.205 0 1.344-.672 2.436t-1.974 1.743q-1.302.63-3.192.63m8.174 3.906V18.87h2.793v1.554h.147q.147-.252.525-.672.399-.42 1.092-.756t1.764-.336q1.26 0 2.184.504a4.4 4.4 0 0 1 1.533 1.323q.609.819.903 1.848a7.14 7.14 0 0 1 0 4.2 5.9 5.9 0 0 1-.903 1.869 4.7 4.7 0 0 1-1.533 1.323q-.924.483-2.184.483-1.071 0-1.764-.336-.693-.357-1.092-.777a5.6 5.6 0 0 1-.525-.651h-.147v5.67zm2.751-9.681q0 .861.315 1.659t.945 1.323q.63.504 1.575.504.966 0 1.596-.504.63-.525.945-1.323t.315-1.659-.315-1.659a3.1 3.1 0 0 0-.945-1.302q-.63-.525-1.596-.525-.945 0-1.575.525-.63.504-.945 1.302a4.5 4.5 0 0 0-.315 1.659m16.217 5.775q-1.428 0-2.478-.483a5.2 5.2 0 0 1-1.722-1.323 5.9 5.9 0 0 1-1.008-1.869 6.7 6.7 0 0 1-.336-2.1q0-1.071.315-2.079a6.1 6.1 0 0 1 .987-1.869 4.7 4.7 0 0 1 1.701-1.323q1.029-.504 2.436-.504 1.512 0 2.667.672t1.806 1.974q.651 1.281.651 3.192v.714H130.3q.063 1.134.777 1.974.714.819 1.953.819.714 0 1.176-.231t.714-.525q.252-.315.357-.525l.105-.231h2.583l-.105.378q-.105.357-.399.924-.273.546-.819 1.113-.546.546-1.428.924t-2.184.378m-2.73-6.825h5.061q-.063-1.302-.777-1.932a2.46 2.46 0 0 0-1.68-.63q-1.071 0-1.785.693-.714.672-.819 1.869m14.856-4.725q1.071 0 1.764.357.693.336 1.092.756.399.399.546.651h.126V18.87h2.793V30h-2.793v-1.554h-.126q-.147.252-.546.672t-1.092.756-1.764.336q-1.239 0-2.163-.483a4.9 4.9 0 0 1-1.554-1.323 6.3 6.3 0 0 1-.924-1.869 7.6 7.6 0 0 1-.294-2.1q0-1.071.294-2.1.315-1.029.924-1.848.63-.84 1.554-1.323.924-.504 2.163-.504m.735 2.289q-.945 0-1.596.525-.63.504-.945 1.302a4.5 4.5 0 0 0-.315 1.659q0 .861.315 1.659t.945 1.323q.651.504 1.596.504t1.575-.504q.63-.525.945-1.323t.315-1.659-.315-1.659a3.1 3.1 0 0 0-.945-1.302q-.63-.525-1.575-.525M154.339 30V14.04h2.793v9.24l3.927-4.41h3.297l-4.62 5.082L164.503 30h-3.339l-4.032-5.124V30z"/><defs><clipPath id="a"><path fill="#fff" d="M0 0h44v44H0z"/></clipPath></defs></svg>