<svg width="166" height="44" viewBox="0 0 166 44" fill="none" xmlns="http://www.w3.org/2000/svg">
<g clip-path="url(#clip0_117_904)">
<path d="M22.6101 0.0917395C22.4125 -0.0265301 22.151 -0.0215371 21.9392 0.108591C17.4586 0.299881 12.7893 1.67012 8.98349 5.03253C2.79322 10.5026 1.27194 17.5004 3.37427 24.2515C3.41078 24.5972 3.52375 24.9327 3.71628 25.2357C3.7787 25.3346 3.84891 25.4283 3.92692 25.5178C4.79694 26.5008 6.35192 26.5476 7.39731 25.6217C8.17089 24.9393 8.45299 23.9173 8.19679 23.0332C8.11878 22.7627 7.99146 22.5052 7.80953 22.2712C5.29342 16.8217 6.49359 10.4898 12.2017 5.44601C15.161 2.83378 18.6897 1.69883 22.0587 1.26726C22.2044 1.3047 22.3657 1.28785 22.5087 1.21639C22.5645 1.18924 22.6179 1.15648 22.6647 1.11373C22.9377 0.870633 22.9767 0.466208 22.7505 0.207513C22.709 0.160704 22.6606 0.124193 22.6101 0.0917395Z" fill="#303790"/>
<path d="M24.269 0.197422C24.4849 0.439266 24.4615 0.809677 24.2184 1.02312C23.9766 1.23876 23.6087 1.21535 23.3915 0.972259C23.1796 0.730415 23.2014 0.360003 23.4433 0.145308C23.6867 -0.0678266 24.0558 -0.0431741 24.269 0.197422Z" fill="#303790"/>
<path d="M25.7952 0.394627C25.9553 0.577804 25.9381 0.856159 25.7575 1.01718C25.5743 1.17851 25.2959 1.16041 25.1346 0.978173C24.9723 0.794995 24.9904 0.516641 25.1724 0.356868C25.3546 0.195534 25.6339 0.212385 25.7952 0.394627Z" fill="#303790"/>
<path d="M26.982 0.55746C27.0974 0.687588 27.0847 0.887928 26.9545 1.00339C26.8244 1.11791 26.6256 1.10637 26.5098 0.974992C26.3928 0.846112 26.4059 0.644524 26.5357 0.530311C26.6671 0.414538 26.8675 0.427644 26.982 0.55746Z" fill="#303790"/>
<path d="M6.59438 21.2213C7.64757 23.5786 7.4566 25.4431 5.84545 26.2869C6.60749 26.2311 7.2057 25.7929 7.39793 25.6226C8.17027 24.9398 8.45268 23.9178 8.19648 23.0337C8.11972 22.7632 7.99084 22.5057 7.81016 22.2717C5.29311 16.8213 6.49296 10.4903 12.2011 5.44684C13.1997 4.56528 14.2632 3.85535 15.3619 3.2793C5.43603 7.91459 4.87433 17.3659 6.59438 21.2213Z" fill="#1E2660"/>
<path d="M6.5563 21.1326C5.15204 17.1486 5.4357 7.9142 15.3616 3.27891C17.0988 2.37145 18.9294 1.80725 20.738 1.47429C21.1802 1.39222 21.6196 1.32481 22.0593 1.26739C22.2047 1.30515 22.366 1.2883 22.509 1.21684C22.5648 1.18938 22.6182 1.15568 22.665 1.11417C22.938 0.87108 22.9758 0.466655 22.7508 0.20796C22.7093 0.161151 22.6612 0.124641 22.6104 0.0921868C22.4116 -0.0260827 22.1513 -0.022338 21.9394 0.109038C17.4577 0.300017 12.7896 1.66932 8.9841 5.03298C2.79227 10.503 1.27224 17.5009 3.37488 24.2504C3.41108 24.5977 3.52436 24.9331 3.71534 25.2362C3.779 25.3348 3.84921 25.4284 3.92722 25.5183" fill="#303790"/>
<path d="M0.09329 21.3027C-0.0262277 21.5003 -0.022483 21.7605 0.108893 21.9724C0.297375 26.4554 1.66918 31.1222 5.03284 34.9277C10.5016 41.1196 17.5008 42.6409 24.2518 40.5385C24.5988 40.5008 24.9343 40.3887 25.2373 40.1965C25.3349 40.1341 25.4286 40.0639 25.5181 39.9859C26.5023 39.1159 26.5479 37.5609 25.6236 36.5142C24.9383 35.7407 23.9176 35.461 23.0335 35.7144C22.763 35.7925 22.5055 35.9201 22.2727 36.1033C16.822 38.6206 10.4913 37.4192 5.44756 31.7111C2.83408 28.7518 1.70038 25.2203 1.26881 21.8541C1.30501 21.7084 1.28691 21.5458 1.21669 21.4029C1.19079 21.3483 1.15678 21.2949 1.11403 21.2481C0.870935 20.9738 0.465262 20.9361 0.207815 21.1623C0.161006 21.2038 0.123247 21.2506 0.09329 21.3027Z" fill="#E6E52A"/>
<path d="M0.198777 19.6407C0.440621 19.4285 0.809784 19.4507 1.02448 19.6913C1.23886 19.9344 1.21546 20.3051 0.973614 20.5195C0.730522 20.7329 0.361359 20.7095 0.146664 20.4677C-0.0677191 20.2243 -0.0443148 19.8539 0.198777 19.6407Z" fill="#E6E52A"/>
<path d="M0.394741 18.1171C0.57823 17.9557 0.856585 17.9713 1.01761 18.1548C1.17894 18.338 1.16209 18.6164 0.978599 18.7777C0.79667 18.94 0.518316 18.9219 0.357294 18.7399C0.195961 18.5577 0.21406 18.2784 0.394741 18.1171Z" fill="#E6E52A"/>
<path d="M0.557025 16.9297C0.688089 16.8139 0.887181 16.827 1.00295 16.9572C1.11873 17.087 1.10562 17.2861 0.975493 17.4018C0.845678 17.5189 0.644089 17.5045 0.529564 17.3756C0.41504 17.2442 0.426898 17.0442 0.557025 16.9297Z" fill="#E6E52A"/>
<path d="M21.2214 37.3174C23.5803 36.2642 25.4448 36.4555 26.2874 38.065C26.2299 37.3046 25.7931 36.7063 25.623 36.5138C24.939 35.7402 23.917 35.4606 23.0329 35.7143C22.7624 35.7923 22.5049 35.9196 22.2721 36.1016C16.8214 38.6189 10.4907 37.4188 5.44696 31.7109C4.5654 30.7124 3.85422 29.6486 3.27817 28.5498C7.91502 38.476 17.365 39.039 21.2214 37.3174Z" fill="#B5B115"/>
<path d="M21.3022 43.8202C21.4998 43.9397 21.7613 43.9344 21.9731 43.8046C26.4537 43.6146 31.123 42.2431 34.9285 38.8807C41.1191 33.4103 42.6404 26.4124 40.5377 19.6605C40.5015 19.3147 40.3882 18.9777 40.196 18.675C40.1336 18.5773 40.0634 18.4824 39.9854 18.3941C39.1154 17.4096 37.5616 17.3628 36.5137 18.2899C35.7398 18.9739 35.459 19.9947 35.7152 20.8787C35.7932 21.1493 35.9208 21.408 36.1028 21.638C38.6186 27.0899 37.4187 33.4209 31.7106 38.4644C28.7513 41.0766 25.221 42.2119 21.8533 42.6422C21.7079 42.6069 21.5466 42.6238 21.4036 42.6955C21.3478 42.7214 21.2957 42.7551 21.2476 42.797C20.9746 43.0413 20.9356 43.447 21.1618 43.7032C21.2033 43.75 21.2514 43.789 21.3022 43.8202Z" fill="#8DC440"/>
<path d="M19.6427 43.7129C19.4268 43.4723 19.4502 43.1032 19.6933 42.8885C19.9351 42.6753 20.3046 42.6975 20.5202 42.9393C20.7337 43.1812 20.7115 43.5503 20.4684 43.765C20.2266 43.9794 19.8559 43.956 19.6427 43.7129Z" fill="#8DC440"/>
<path d="M18.1177 43.5171C17.9564 43.3352 17.9732 43.0556 18.1555 42.893C18.3386 42.7332 18.617 42.7513 18.7768 42.9348C18.9393 43.1155 18.9225 43.3935 18.7406 43.5548C18.5571 43.7162 18.2775 43.6978 18.1177 43.5171Z" fill="#8DC440"/>
<path d="M16.9303 43.3537C16.8146 43.2239 16.8277 43.0248 16.9578 42.9091C17.0876 42.7933 17.2867 42.8064 17.4025 42.9378C17.5195 43.0679 17.5064 43.2667 17.3763 43.3825C17.2449 43.4954 17.0449 43.4864 16.9303 43.3537Z" fill="#8DC440"/>
<path d="M37.3176 22.6896C36.2644 20.3311 36.4557 18.4666 38.0666 17.624C37.3033 17.6824 36.7066 18.1208 36.5141 18.2884C35.7405 18.9737 35.4596 19.9944 35.7158 20.8785C35.7926 21.149 35.9212 21.4077 36.1019 21.6377C38.6192 27.0896 37.419 33.4206 31.7112 38.4641C30.7126 39.3457 29.6488 40.0584 28.5501 40.6329C38.4763 35.9964 39.0392 26.5476 37.3176 22.6896Z" fill="#6B932C"/>
<path d="M37.3557 22.7804C38.7599 26.762 38.4753 35.996 28.5507 40.6329C26.8122 41.5391 24.9826 42.1033 23.1755 42.4375H23.1715H23.1727C22.7333 42.518 22.2924 42.587 21.8543 42.6416C21.7073 42.6067 21.5463 42.6235 21.403 42.695C21.3472 42.7209 21.2954 42.7549 21.247 42.7964C20.974 43.0407 20.9349 43.4464 21.1612 43.7026C21.2043 43.7482 21.2511 43.7884 21.3016 43.8196C21.5007 43.9379 21.7607 43.9341 21.9725 43.8028C26.4546 43.6143 31.1224 42.2425 34.9282 38.8801C41.12 33.41 42.6401 26.4122 40.5387 19.6599C40.5009 19.3141 40.3879 18.9762 40.1967 18.6744C40.1342 18.5767 40.064 18.4819 39.9848 18.3936" fill="#8DC440"/>
<path d="M43.8196 22.6082C43.9379 22.4119 43.9338 22.1504 43.804 21.9385C43.614 17.458 42.2422 12.7887 38.8798 8.98412C33.4097 2.7926 26.4119 1.27133 19.6611 3.3749C19.3138 3.41141 18.9771 3.52313 18.6769 3.71567C18.5767 3.77808 18.4831 3.84829 18.3933 3.9263C17.4103 4.79632 17.3635 6.35005 18.2893 7.39794C18.9734 8.17152 19.9941 8.45238 20.8794 8.19774C21.15 8.11816 21.4074 7.99084 21.6402 7.80891C27.0906 5.2928 33.4203 6.49297 38.4651 12.1999C41.0785 15.1591 42.2125 18.6906 42.6441 22.0568C42.6064 22.205 42.6245 22.3651 42.6947 22.5093C42.7221 22.5639 42.7558 22.616 42.7976 22.6641C43.0407 22.9384 43.4464 22.9761 43.7051 22.7486C43.7507 22.7084 43.7884 22.66 43.8196 22.6082Z" fill="#E02228"/>
<path d="M43.7135 24.2704C43.4717 24.4835 43.1025 24.4614 42.8878 24.2195C42.6734 23.9764 42.6968 23.6085 42.9387 23.3913C43.1818 23.1794 43.5509 23.2016 43.7656 23.4434C43.9788 23.6865 43.9566 24.0557 43.7135 24.2704Z" fill="#E02228"/>
<path d="M43.5173 25.7946C43.3341 25.9559 43.0557 25.9391 42.8944 25.7556C42.7334 25.5737 42.7502 25.2953 42.9334 25.134C43.1156 24.973 43.3937 24.9898 43.555 25.1717C43.7163 25.354 43.6979 25.6348 43.5173 25.7946Z" fill="#E02228"/>
<path d="M43.3556 26.9805C43.2242 27.0976 43.0251 27.0845 42.9094 26.9531C42.7939 26.823 42.8067 26.6242 42.9368 26.5084C43.067 26.3926 43.267 26.4045 43.3828 26.5343C43.4973 26.6669 43.4867 26.8673 43.3556 26.9805Z" fill="#E02228"/>
<path d="M22.6906 6.59415C20.3321 7.64609 18.4675 7.45636 17.625 5.84678C17.6821 6.60726 18.1202 7.20547 18.2893 7.3977C18.9734 8.1716 19.9941 8.45245 20.8794 8.1975C21.15 8.11824 21.4074 7.99061 21.6402 7.80992C27.0906 5.29412 33.4203 6.49273 38.4651 12.2009C39.3466 13.2007 40.0578 14.2629 40.6338 15.3629C35.9973 5.43704 26.5473 4.87285 22.6906 6.59415Z" fill="#A31721"/>
<path d="M22.7801 6.55573C26.7629 5.15022 35.9973 5.43638 40.6338 15.3623C41.5401 17.0995 42.1043 18.9263 42.4385 20.7375C42.5193 21.1796 42.5879 21.619 42.6441 22.0571C42.6076 22.2041 42.6245 22.3642 42.6947 22.5084C42.7221 22.5642 42.7558 22.6164 42.7986 22.6632C43.042 22.9387 43.4461 22.9765 43.7051 22.749C43.7504 22.7075 43.7881 22.6594 43.8193 22.6085C43.9376 22.411 43.9338 22.1508 43.8037 21.9389C43.614 17.4584 42.2422 12.7891 38.8798 8.98478C33.4097 2.79295 26.4119 1.27167 19.6611 3.37431C19.3138 3.41176 18.9771 3.52254 18.6766 3.71601C18.578 3.77717 18.4831 3.84863 18.3932 3.92665" fill="#E02228"/>
<path d="M23.4436 0.146364C23.2005 0.360747 23.1783 0.73147 23.3918 0.973314C23.6074 1.21516 23.9769 1.23981 24.2187 1.02387C24.4618 0.810732 24.4852 0.438761 24.2693 0.198477C24.0562 -0.0433668 23.6867 -0.0683314 23.4436 0.146364Z" fill="#303790"/>
<path d="M25.1724 0.356635C24.9904 0.51672 24.9723 0.795075 25.1346 0.978252C25.2959 1.16018 25.5743 1.17859 25.7575 1.01726C25.9381 0.855926 25.9553 0.577883 25.7952 0.394394C25.6339 0.212465 25.3546 0.195614 25.1724 0.356635Z" fill="#303790"/>
<path d="M26.982 0.55746C26.8675 0.427644 26.6671 0.414538 26.5357 0.530311C26.4059 0.644524 26.3928 0.846112 26.5098 0.974992C26.6256 1.10637 26.8244 1.11791 26.9545 1.00339C27.0847 0.887928 27.0974 0.687588 26.982 0.55746Z" fill="#303790"/>
</g>
<path d="M55.512 30V14.46H58.368V30H55.512ZM61.1877 30V18.87H63.9807V20.466H64.1067C64.2187 20.27 64.3937 20.032 64.6317 19.752C64.8697 19.458 65.1987 19.206 65.6187 18.996C66.0387 18.772 66.5707 18.66 67.2147 18.66C68.0687 18.66 68.7687 18.856 69.3147 19.248C69.8747 19.626 70.2877 20.13 70.5537 20.76C70.8337 21.39 70.9737 22.069 70.9737 22.797V30H68.1807V23.175C68.1807 22.573 68.0127 22.055 67.6767 21.621C67.3407 21.187 66.8367 20.97 66.1647 20.97C65.6467 20.97 65.2267 21.103 64.9047 21.369C64.5827 21.621 64.3447 21.95 64.1907 22.356C64.0507 22.762 63.9807 23.189 63.9807 23.637V30H61.1877ZM74.8765 30V21.117H73.0915V18.87H74.8765V17.841C74.8765 17.421 74.9325 16.98 75.0445 16.518C75.1565 16.042 75.3455 15.601 75.6115 15.195C75.8915 14.789 76.2765 14.46 76.7665 14.208C77.2705 13.956 77.9005 13.83 78.6565 13.83C79.0765 13.83 79.4195 13.865 79.6855 13.935C79.9655 13.991 80.1055 14.019 80.1055 14.019V16.056C80.1055 16.056 80.0145 16.042 79.8325 16.014C79.6505 15.972 79.4545 15.951 79.2445 15.951C78.6425 15.951 78.2295 16.126 78.0055 16.476C77.7815 16.826 77.6695 17.281 77.6695 17.841V18.87H80.0425V21.117H77.6695V30H74.8765ZM87.0755 30.21C85.8575 30.21 84.8215 29.937 83.9675 29.391C83.1135 28.845 82.4625 28.138 82.0145 27.27C81.5805 26.388 81.3635 25.443 81.3635 24.435C81.3635 23.427 81.5805 22.489 82.0145 21.621C82.4625 20.739 83.1135 20.025 83.9675 19.479C84.8215 18.933 85.8575 18.66 87.0755 18.66C88.3075 18.66 89.3435 18.933 90.1835 19.479C91.0375 20.025 91.6815 20.739 92.1155 21.621C92.5635 22.489 92.7875 23.427 92.7875 24.435C92.7875 25.443 92.5635 26.388 92.1155 27.27C91.6815 28.138 91.0375 28.845 90.1835 29.391C89.3435 29.937 88.3075 30.21 87.0755 30.21ZM87.0755 27.879C87.7055 27.879 88.2305 27.718 88.6505 27.396C89.0845 27.074 89.4135 26.654 89.6375 26.136C89.8615 25.604 89.9735 25.037 89.9735 24.435C89.9735 23.819 89.8615 23.252 89.6375 22.734C89.4135 22.216 89.0845 21.796 88.6505 21.474C88.2305 21.152 87.7055 20.991 87.0755 20.991C86.4595 20.991 85.9345 21.152 85.5005 21.474C85.0665 21.796 84.7375 22.216 84.5135 22.734C84.2895 23.252 84.1775 23.819 84.1775 24.435C84.1775 25.037 84.2895 25.604 84.5135 26.136C84.7375 26.654 85.0665 27.074 85.5005 27.396C85.9345 27.718 86.4595 27.879 87.0755 27.879ZM105.888 30.21C104.922 30.21 104.096 30.091 103.41 29.853C102.724 29.615 102.15 29.307 101.688 28.929C101.24 28.551 100.883 28.152 100.617 27.732C100.351 27.298 100.148 26.892 100.008 26.514C99.8816 26.136 99.7976 25.828 99.7556 25.59C99.7136 25.352 99.6926 25.233 99.6926 25.233H102.591C102.591 25.233 102.605 25.317 102.633 25.485C102.675 25.653 102.759 25.87 102.885 26.136C103.011 26.388 103.193 26.64 103.431 26.892C103.683 27.144 104.012 27.361 104.418 27.543C104.838 27.711 105.356 27.795 105.972 27.795C106.924 27.795 107.645 27.585 108.135 27.165C108.639 26.731 108.891 26.199 108.891 25.569C108.891 25.037 108.702 24.617 108.324 24.309C107.946 23.987 107.386 23.749 106.644 23.595L104.586 23.154C103.788 22.986 103.039 22.734 102.339 22.398C101.653 22.062 101.1 21.607 100.68 21.033C100.26 20.459 100.05 19.724 100.05 18.828C100.05 17.89 100.281 17.078 100.743 16.392C101.219 15.706 101.87 15.181 102.696 14.817C103.522 14.439 104.488 14.25 105.594 14.25C106.644 14.25 107.512 14.404 108.198 14.712C108.884 15.02 109.43 15.398 109.836 15.846C110.256 16.294 110.564 16.742 110.76 17.19C110.956 17.638 111.082 18.016 111.138 18.324C111.208 18.632 111.243 18.786 111.243 18.786H108.45C108.45 18.786 108.422 18.681 108.366 18.471C108.31 18.247 108.184 17.995 107.988 17.715C107.792 17.435 107.498 17.19 107.106 16.98C106.714 16.756 106.189 16.644 105.531 16.644C104.593 16.644 103.907 16.854 103.473 17.274C103.053 17.694 102.843 18.149 102.843 18.639C102.843 19.143 103.039 19.535 103.431 19.815C103.823 20.095 104.348 20.312 105.006 20.466L107.211 20.928C108.037 21.11 108.793 21.383 109.479 21.747C110.165 22.111 110.711 22.594 111.117 23.196C111.523 23.784 111.726 24.519 111.726 25.401C111.726 26.297 111.502 27.109 111.054 27.837C110.606 28.565 109.948 29.146 109.08 29.58C108.212 30 107.148 30.21 105.888 30.21ZM114.062 34.116V18.87H116.855V20.424H117.002C117.1 20.256 117.275 20.032 117.527 19.752C117.793 19.472 118.157 19.22 118.619 18.996C119.081 18.772 119.669 18.66 120.383 18.66C121.223 18.66 121.951 18.828 122.567 19.164C123.183 19.486 123.694 19.927 124.1 20.487C124.506 21.033 124.807 21.649 125.003 22.335C125.213 23.021 125.318 23.721 125.318 24.435C125.318 25.149 125.213 25.849 125.003 26.535C124.807 27.221 124.506 27.844 124.1 28.404C123.694 28.95 123.183 29.391 122.567 29.727C121.951 30.049 121.223 30.21 120.383 30.21C119.669 30.21 119.081 30.098 118.619 29.874C118.157 29.636 117.793 29.377 117.527 29.097C117.275 28.817 117.1 28.6 117.002 28.446H116.855V34.116H114.062ZM116.813 24.435C116.813 25.009 116.918 25.562 117.128 26.094C117.338 26.626 117.653 27.067 118.073 27.417C118.493 27.753 119.018 27.921 119.648 27.921C120.292 27.921 120.824 27.753 121.244 27.417C121.664 27.067 121.979 26.626 122.189 26.094C122.399 25.562 122.504 25.009 122.504 24.435C122.504 23.861 122.399 23.308 122.189 22.776C121.979 22.244 121.664 21.81 121.244 21.474C120.824 21.124 120.292 20.949 119.648 20.949C119.018 20.949 118.493 21.124 118.073 21.474C117.653 21.81 117.338 22.244 117.128 22.776C116.918 23.308 116.813 23.861 116.813 24.435ZM133.03 30.21C132.078 30.21 131.252 30.049 130.552 29.727C129.866 29.391 129.292 28.95 128.83 28.404C128.382 27.844 128.046 27.221 127.822 26.535C127.598 25.849 127.486 25.149 127.486 24.435C127.486 23.721 127.591 23.028 127.801 22.356C128.025 21.67 128.354 21.047 128.788 20.487C129.236 19.927 129.803 19.486 130.489 19.164C131.175 18.828 131.987 18.66 132.925 18.66C133.933 18.66 134.822 18.884 135.592 19.332C136.362 19.78 136.964 20.438 137.398 21.306C137.832 22.16 138.049 23.224 138.049 24.498V25.212H130.3C130.342 25.968 130.601 26.626 131.077 27.186C131.553 27.732 132.204 28.005 133.03 28.005C133.506 28.005 133.898 27.928 134.206 27.774C134.514 27.62 134.752 27.445 134.92 27.249C135.088 27.039 135.207 26.864 135.277 26.724C135.347 26.57 135.382 26.493 135.382 26.493H137.965C137.965 26.493 137.93 26.619 137.86 26.871C137.79 27.109 137.657 27.417 137.461 27.795C137.279 28.159 137.006 28.53 136.642 28.908C136.278 29.272 135.802 29.58 135.214 29.832C134.626 30.084 133.898 30.21 133.03 30.21ZM130.3 23.385H135.361C135.319 22.517 135.06 21.873 134.584 21.453C134.108 21.033 133.548 20.823 132.904 20.823C132.19 20.823 131.595 21.054 131.119 21.516C130.643 21.964 130.37 22.587 130.3 23.385ZM145.156 18.66C145.87 18.66 146.458 18.779 146.92 19.017C147.382 19.241 147.746 19.493 148.012 19.773C148.278 20.039 148.46 20.256 148.558 20.424H148.684V18.87H151.477V30H148.684V28.446H148.558C148.46 28.614 148.278 28.838 148.012 29.118C147.746 29.398 147.382 29.65 146.92 29.874C146.458 30.098 145.87 30.21 145.156 30.21C144.33 30.21 143.609 30.049 142.993 29.727C142.377 29.391 141.859 28.95 141.439 28.404C141.033 27.844 140.725 27.221 140.515 26.535C140.319 25.849 140.221 25.149 140.221 24.435C140.221 23.721 140.319 23.021 140.515 22.335C140.725 21.649 141.033 21.033 141.439 20.487C141.859 19.927 142.377 19.486 142.993 19.164C143.609 18.828 144.33 18.66 145.156 18.66ZM145.891 20.949C145.261 20.949 144.729 21.124 144.295 21.474C143.875 21.81 143.56 22.244 143.35 22.776C143.14 23.308 143.035 23.861 143.035 24.435C143.035 25.009 143.14 25.562 143.35 26.094C143.56 26.626 143.875 27.067 144.295 27.417C144.729 27.753 145.261 27.921 145.891 27.921C146.521 27.921 147.046 27.753 147.466 27.417C147.886 27.067 148.201 26.626 148.411 26.094C148.621 25.562 148.726 25.009 148.726 24.435C148.726 23.861 148.621 23.308 148.411 22.776C148.201 22.244 147.886 21.81 147.466 21.474C147.046 21.124 146.521 20.949 145.891 20.949ZM154.339 30V14.04H157.132V23.28L161.059 18.87H164.356L159.736 23.952L164.503 30H161.164L157.132 24.876V30H154.339Z" fill="#F0F0F0"/>
<defs>
<clipPath id="clip0_117_904">
<rect width="44" height="44" fill="white"/>
</clipPath>
</defs>
</svg>
